<svg width="10" height="10" viewBox="0 0 10 10" fill="none" xmlns="http://www.w3.org/2000/svg">
<g clip-path="url(#clip0)">
<path d="M5.27441 7.5864L9.88692 2.96111C10.038 2.80956 10.0377 2.56421 9.88614 2.41292C9.73459 2.26175 9.48911 2.26214 9.33795 2.41371L4.99998 6.76369L0.662031 2.41355C0.51086 2.26201 0.265529 2.26162 0.113967 2.41277C0.0379906 2.48861 1.89475e-06 2.58796 1.8904e-06 2.68732C1.88607e-06 2.78642 0.0377369 2.88538 0.113186 2.96109L4.72557 7.5864C4.79819 7.65939 4.89701 7.70034 4.99998 7.70034C5.10295 7.70034 5.20166 7.65927 5.27441 7.5864Z" fill="black"/>
</g>
<defs>
<clipPath id="clip0">
<rect width="10" height="10" fill="white" transform="translate(10) rotate(90)"/>
</clipPath>
</defs>
</svg>
