<svg width="67" height="67" viewBox="0 0 67 67" fill="none" xmlns="http://www.w3.org/2000/svg">
<g clip-path="url(#clip0)">
<path d="M63.9211 33.5023L66.8605 25.8356C67.183 24.9897 66.9317 24.0309 66.2241 23.4572L59.8512 18.2902L58.5615 10.1796C58.4191 9.2835 57.7157 8.58424 56.8196 8.44187L48.709 7.15221L43.5461 0.775086C42.9767 0.067447 41.9969 -0.183786 41.172 0.13863L33.501 3.08224L25.8342 0.142817C24.9842 -0.183786 24.0337 0.0758215 23.4601 0.779273L18.2931 7.1564L10.1824 8.44606C9.29054 8.58843 8.58709 9.29188 8.44473 10.1838L7.15506 18.2944L0.777937 23.4614C0.0744855 24.0309 -0.180935 24.9897 0.141481 25.8356L3.0809 33.5023L0.141481 41.1691C-0.185122 42.015 0.0744855 42.9738 0.777937 43.5433L7.15506 48.7061L8.44473 56.8167C8.58709 57.7128 9.28636 58.4163 10.1824 58.5586L18.2931 59.8483L23.4601 66.2212C24.0337 66.9331 24.9926 67.1843 25.8384 66.8577L33.501 63.9225L41.1678 66.8619C41.4107 66.954 41.6619 67 41.9173 67C42.5328 67 43.14 66.7279 43.5461 66.2212L48.709 59.8483L56.8196 58.5586C57.7157 58.4163 58.4191 57.7128 58.5615 56.8167L59.8512 48.7061L66.2241 43.5433C66.9317 42.9696 67.183 42.015 66.8605 41.1691L63.9211 33.5023Z" fill="#FFC366"/>
<path d="M27.2198 29.3162C23.757 29.3162 20.939 26.4982 20.939 23.0353C20.939 19.5725 23.757 16.7545 27.2198 16.7545C30.6826 16.7545 33.5006 19.5725 33.5006 23.0353C33.5006 26.4982 30.6826 29.3162 27.2198 29.3162ZM27.2198 20.9417C26.0641 20.9417 25.1262 21.8797 25.1262 23.0353C25.1262 24.191 26.0641 25.1289 27.2198 25.1289C28.3754 25.1289 29.3134 24.191 29.3134 23.0353C29.3134 21.8797 28.3754 20.9417 27.2198 20.9417Z" fill="#FAFAFA"/>
<path d="M39.7814 50.2511C36.3186 50.2511 33.5006 47.4331 33.5006 43.9703C33.5006 40.5074 36.3186 37.6895 39.7814 37.6895C43.2443 37.6895 46.0623 40.5074 46.0623 43.9703C46.0623 47.4331 43.2443 50.2511 39.7814 50.2511ZM39.7814 41.8767C38.63 41.8767 37.6878 42.8188 37.6878 43.9703C37.6878 45.1218 38.63 46.0639 39.7814 46.0639C40.9329 46.0639 41.875 45.1218 41.875 43.9703C41.875 42.8188 40.9329 41.8767 39.7814 41.8767Z" fill="#FAFAFA"/>
<path d="M23.0322 50.2511C22.6092 50.2511 22.1863 50.1255 21.8179 49.8617C20.8757 49.1876 20.658 47.8812 21.3321 46.939L42.2682 17.6285C42.9424 16.6864 44.2488 16.4687 45.1909 17.1428C46.133 17.8128 46.3466 19.1234 45.6766 20.0613L24.7405 49.3718C24.326 49.9455 23.6854 50.2511 23.0322 50.2511Z" fill="#FAFAFA"/>
</g>
<defs>
<clipPath id="clip0">
<rect width="67" height="67" fill="white"/>
</clipPath>
</defs>
</svg>
