<svg width="25" height="25" viewBox="0 0 25 25" fill="none" xmlns="http://www.w3.org/2000/svg">
<g clip-path="url(#clip0)">
<path d="M24.6945 23.2226L17.5852 16.1133C18.9623 14.4122 19.7915 12.2508 19.7915 9.89667C19.7915 4.44047 15.3519 0.000915527 9.8957 0.000915527C4.43951 0.000915527 0 4.44042 0 9.89662C0 15.3528 4.43956 19.7924 9.89575 19.7924C12.2499 19.7924 14.4113 18.9632 16.1123 17.5861L23.2216 24.6954C23.4248 24.8986 23.6914 25.0007 23.9581 25.0007C24.2248 25.0007 24.4915 24.8986 24.6946 24.6954C25.1019 24.2882 25.1019 23.6298 24.6945 23.2226ZM9.89575 17.709C5.58745 17.709 2.08333 14.2049 2.08333 9.89662C2.08333 5.58831 5.58745 2.0842 9.89575 2.0842C14.2041 2.0842 17.7082 5.58831 17.7082 9.89662C17.7082 14.2049 14.204 17.709 9.89575 17.709Z" fill="#B2121E"/>
</g>
<defs>
<clipPath id="clip0">
<rect width="25" height="25" fill="white"/>
</clipPath>
</defs>
</svg>
