<svg width="147" height="147" viewBox="0 0 147 147" fill="none" xmlns="http://www.w3.org/2000/svg">
<path d="M105.99 50.178C108.234 52.421 108.234 56.057 105.99 58.2989L67.4685 96.822C65.2254 99.0639 61.5906 99.0639 59.3475 96.822L41.0095 78.4829C38.7665 76.241 38.7665 72.605 41.0095 70.3631C43.2515 68.1201 46.8874 68.1201 49.1293 70.3631L63.4074 84.6412L97.8695 50.178C100.113 47.9361 103.749 47.9361 105.99 50.178ZM147 73.5C147 114.127 114.121 147 73.5 147C32.8729 147 0 114.121 0 73.5C0 32.8729 32.8785 0 73.5 0C114.127 0 147 32.8785 147 73.5ZM135.516 73.5C135.516 39.2207 107.775 11.4844 73.5 11.4844C39.2207 11.4844 11.4844 39.2252 11.4844 73.5C11.4844 107.779 39.2252 135.516 73.5 135.516C107.779 135.516 135.516 107.775 135.516 73.5Z" fill="#B2121E"/>
</svg>
