<svg width="1399" height="393" viewBox="0 0 1399 393" fill="none" xmlns="http://www.w3.org/2000/svg">
<g clip-path="url(#clip0)">
<path d="M446.795 303.54C429.343 279.659 403.032 264.624 372.638 261.209C372.503 261.195 372.334 261.176 372.216 261.163C311.259 254.482 271.107 288.515 237.152 324.946C227.727 334.153 213.668 342.101 197.929 330.97C188.214 324.124 185.871 310.789 192.679 301.264C197.709 294.257 207.622 292.672 214.76 297.692C217.22 299.428 218.841 301.99 219.37 304.928C219.904 307.869 219.22 310.836 217.473 313.246C216.329 314.85 214.659 315.802 212.843 316.168C212.164 312.201 208.696 309.159 204.543 309.308C200.157 309.485 196.847 313.015 196.813 317.275C195.157 320.289 195.905 324.085 198.828 326.124C208.55 332.939 222.007 330.79 228.813 321.255C232.666 315.864 234.155 309.258 233.028 302.679C231.879 296.117 228.212 290.365 222.703 286.498C209.321 277.028 190.72 280.065 181.26 293.227C170.065 308.913 173.941 330.843 189.861 342.102C196.114 346.511 202.757 349.067 209.479 349.804C211.21 349.994 212.906 349.732 214.61 349.676C207.807 357.249 201.056 364.723 194.105 371.714C178.098 387.825 164.376 401.252 151.369 411.354C149.881 411.325 148.361 411.663 147.097 412.605C120.142 432.687 94.2672 433.037 74.1836 413.443C58.6259 398.29 58.2892 373.529 73.4575 358.289C85.1219 346.633 104.241 346.572 116.141 358.199C120.479 362.417 122.925 368.028 122.993 374.051C123.077 380.078 120.757 385.688 116.53 389.993C113.687 392.868 109.938 394.326 105.939 394.649C106.442 393.489 106.968 392.265 107.107 390.9C107.842 383.7 102.519 377.182 95.189 376.379C87.8818 375.578 81.3486 380.761 80.6105 387.996C80.4166 389.895 80.6635 391.725 81.2246 393.423C80.731 395.66 81.2545 398.076 83.0401 399.79C88.9122 405.524 96.6873 408.652 104.878 408.623C113.08 408.579 120.74 405.424 126.458 399.697C133.321 392.866 136.995 383.713 136.866 374.005C136.738 364.32 132.825 355.269 125.818 348.457C108.417 331.485 80.4901 331.565 63.4857 348.567C44.2506 367.964 43.6801 398.54 61.0921 419.174C53.5738 413.783 47.1065 406.938 42.3058 398.629C33.2267 382.853 30.9062 363.807 35.907 346.471C43.8578 319.023 72.9801 303.327 100.819 311.438C104.481 312.514 108.358 310.436 109.411 306.809C110.466 303.157 108.337 299.36 104.633 298.28C69.3484 287.937 32.6128 307.861 22.5784 342.539C16.5375 363.443 19.3362 386.332 30.3055 405.333C40.9959 423.865 58.1339 437.069 78.5871 442.514C129.933 456.029 164.277 421.468 204.074 381.369C204.264 381.188 204.48 380.975 204.674 380.76C204.703 380.728 204.738 380.732 204.757 380.702C214.838 371.759 230.139 363.772 245.687 376.489C254.83 384.03 256.219 397.496 248.757 406.455C243.24 413.031 233.249 413.889 226.479 408.363C224.141 406.422 222.702 403.752 222.413 400.787C222.115 397.84 223.01 394.937 224.889 392.749C226.306 391.067 228.333 390.196 230.391 390.099C230.99 393.923 234.177 396.969 238.2 397.072C242.712 397.214 246.397 393.655 246.475 389.215C246.48 389.165 246.45 389.113 246.425 389.04C247.485 386.36 246.835 383.186 244.458 381.241C235.296 373.733 221.721 374.907 214.179 383.889C209.926 388.948 207.951 395.376 208.615 401.988C209.265 408.649 212.493 414.647 217.702 418.925C222.395 422.744 227.936 424.968 233.544 425.583C243.12 426.633 252.986 423.096 259.512 415.285C271.834 400.541 269.583 378.434 254.524 366.007C246.187 359.193 236.897 356.104 227.328 356.42C228.435 355.177 229.532 353.964 230.656 352.716C236.264 346.421 241.915 340.122 247.662 333.951C247.935 333.687 248.197 333.53 248.446 333.279C248.589 333.145 248.662 332.942 248.778 332.785C280.988 298.431 316.807 268.912 370.795 274.83C370.914 274.843 371.083 274.861 371.182 274.872C397.561 277.856 420.457 290.871 435.51 311.543C452.425 334.707 458.39 365.53 451.829 396.058C447.033 418.335 433.731 437.353 414.394 449.628C396.52 460.948 375.441 464.872 354.575 461.575C342.056 458.046 332.7 451.389 327.09 441.506C320.376 429.751 319.371 414.169 324.391 398.74C327.581 388.879 334.506 380.839 343.856 376.169C353.24 371.483 363.89 370.756 373.936 373.979C381.612 376.498 387.908 381.816 391.59 388.915C395.264 396.029 395.957 404.107 393.497 411.693C391.654 417.356 387.707 421.963 382.344 424.677C376.949 427.39 370.738 427.77 364.953 425.938C361.186 424.716 358.208 422.133 356.102 418.87C362.023 418.033 366.833 413.504 367.393 407.349C368.045 400.14 362.614 393.696 355.28 392.995C351.378 392.618 347.805 394.029 345.154 396.452C343.189 397.128 341.529 398.531 340.818 400.646C338.294 408.324 338.991 416.556 342.722 423.776C346.52 431.034 352.878 436.448 360.702 439.006C370.1 442.043 379.997 441.342 388.737 436.972C397.404 432.598 403.791 425.174 406.708 416.021C410.326 404.976 409.344 393.191 403.925 382.766C398.522 372.34 389.367 364.603 378.173 360.96C364.584 356.539 350.13 357.582 337.476 363.907C324.817 370.241 315.437 381.073 311.121 394.454C306.544 408.532 306.189 422.884 309.763 435.513C308.71 434.132 307.468 432.922 306.542 431.472C296.669 416.401 293.313 398.437 297.073 380.964C303.13 352.862 331.259 335.165 359.702 341.322C363.529 342.272 367.142 339.805 367.946 336.109C368.732 332.402 366.343 328.736 362.59 327.912C326.652 319.988 291.122 342.485 283.492 377.977C278.941 399.028 283.01 420.66 294.89 438.814C306.764 457.038 325.061 469.66 346.387 474.324C348.526 474.795 350.685 475.032 352.831 475.366C353.146 475.484 353.416 475.632 353.751 475.704C354.036 475.77 354.322 475.817 354.623 475.85C354.757 475.865 354.871 475.759 355.007 475.758C355.78 475.859 356.581 476.065 357.355 476.15C379.996 478.632 402.528 473.501 421.861 461.261C444.363 447.042 459.785 424.97 465.328 399.084C472.852 364.658 466.047 329.859 446.795 303.54Z" fill="#B2121E" fill-opacity="0.04"/>
</g>
<g clip-path="url(#clip1)">
<path d="M1327.52 381.099C1306.87 341.295 1270.92 312.705 1226.17 300.584C1225.97 300.531 1225.72 300.464 1225.54 300.417C1135.75 276.358 1067.75 318.096 1008.48 364.855C992.237 376.476 969.342 385.144 948.326 364.84C935.348 352.344 934.91 331.825 947.305 319.122C956.457 309.783 971.674 309.692 981.213 318.859C984.498 322.028 986.337 326.24 986.451 330.763C986.574 335.293 984.865 339.581 981.692 342.789C979.609 344.928 976.888 345.969 974.082 346.1C973.979 340 969.484 334.642 963.227 333.908C956.615 333.163 950.842 337.689 949.81 344.063C946.633 348.198 946.879 354.057 950.789 357.787C963.785 370.239 984.443 370.12 996.837 357.402C1003.85 350.213 1007.61 340.659 1007.43 330.542C1007.23 320.444 1003.06 310.981 995.693 303.918C977.826 286.646 949.257 286.908 932.05 304.449C911.66 325.37 912.414 359.122 933.671 379.66C942.024 387.706 951.388 393.067 961.289 395.72C963.839 396.403 966.44 396.402 969.007 396.711C957.068 406.49 945.232 416.132 933.206 425.005C905.509 445.454 881.856 462.409 860.04 474.547C857.816 474.161 855.462 474.318 853.351 475.437C808.335 499.312 769.488 493.874 743.913 459.889C724.095 433.599 729.297 396.423 755.536 377.084C775.699 362.31 804.359 366.624 819.508 386.787C825.036 394.106 827.407 403.078 826.121 412.116C824.858 421.166 820.09 429.037 812.763 434.513C807.842 438.165 801.888 439.486 795.822 439.047C796.843 437.427 797.913 435.714 798.437 433.7C801.197 423.082 794.724 412.089 783.927 409.197C773.163 406.312 762.18 412.573 759.407 423.242C758.679 426.044 758.627 428.842 759.076 431.515C757.821 434.753 758.048 438.494 760.329 441.473C767.805 451.418 778.734 457.897 791.013 459.741C803.312 461.566 815.515 458.603 825.402 451.341C837.26 442.687 844.874 429.82 846.918 415.246C848.958 400.706 845.182 386.242 836.252 374.422C814.093 344.981 772.232 338.666 742.836 360.22C709.546 384.849 701.644 430.53 722.977 465.457C712.955 455.647 704.843 443.901 699.565 430.346C689.598 404.617 690.511 375.545 701.999 350.723C720.237 311.432 767.488 294.627 807.329 313.195C812.568 315.651 818.856 313.432 821.269 308.24C823.692 303.011 821.376 296.831 816.076 294.359C765.593 270.731 705.961 292.116 682.935 341.761C669.066 371.689 667.984 406.628 680.04 437.624C691.786 467.854 714.421 491.588 743.81 504.459C817.627 536.543 877.049 492.676 945.917 441.768C946.244 441.541 946.616 441.272 946.955 440.994C947.006 440.953 947.058 440.967 947.094 440.926C964.259 429.85 989.026 421.41 1009.39 444.047C1021.35 457.453 1020.33 477.949 1007.08 489.652C997.301 498.234 982.135 497.216 973.265 487.376C970.209 483.93 968.668 479.598 968.918 475.088C969.151 470.603 971.161 466.46 974.481 463.616C976.992 461.422 980.229 460.584 983.335 460.913C983.352 466.78 987.424 472.079 993.429 473.16C1000.16 474.414 1006.5 469.931 1007.64 463.296C1007.66 463.222 1007.62 463.138 1007.6 463.023C1009.81 459.251 1009.57 454.345 1006.45 450.884C994.455 437.523 973.846 436.154 960.477 447.873C952.939 454.473 948.497 463.648 947.969 473.708C947.408 483.838 950.862 493.568 957.68 501.179C963.831 507.982 971.62 512.592 979.882 514.805C993.987 518.585 1009.58 515.56 1021.16 505.36C1043.02 486.109 1044.74 452.469 1025.05 430.378C1014.12 418.248 1000.92 411.479 986.507 409.747C988.453 408.139 990.377 406.575 992.348 404.965C1002.2 396.826 1012.12 388.689 1022.15 380.768C1022.62 380.435 1023.05 380.261 1023.48 379.942C1023.73 379.774 1023.88 379.486 1024.09 379.279C1080.27 335.23 1140.74 299.258 1220.27 320.567C1220.44 320.613 1220.69 320.68 1220.84 320.719C1259.67 331.27 1290.98 356.046 1308.77 390.488C1328.77 429.093 1330.6 476.649 1313.74 520.876C1301.42 553.148 1277.1 578.577 1245.3 592.511C1215.92 605.352 1183.43 606.374 1152.92 596.626C1134.98 588.452 1122.5 576.322 1116.37 560.222C1109.02 541.062 1111.1 517.485 1122.18 495.524C1129.23 481.484 1141.46 471.035 1156.55 466.193C1171.69 461.335 1187.81 462.699 1202.12 469.843C1213.04 475.387 1221.25 484.805 1225.13 496.29C1228.99 507.796 1228.17 520.06 1222.74 530.859C1218.67 538.918 1211.69 544.911 1203.03 547.741C1194.33 550.563 1184.93 549.701 1176.69 545.622C1171.32 542.924 1167.46 538.368 1165.05 532.992C1174.12 533.103 1182.37 527.426 1184.63 518.334C1187.26 507.683 1180.61 496.777 1169.79 494.035C1164.03 492.572 1158.35 493.862 1153.82 496.881C1150.72 497.442 1147.91 499.161 1146.36 502.166C1140.8 513.088 1139.95 525.583 1143.88 537.259C1147.89 549.01 1156.17 558.587 1167.31 564.223C1180.69 570.939 1195.68 572.169 1209.78 567.636C1223.77 563.08 1235.05 553.428 1241.53 540.387C1249.5 524.673 1250.74 506.789 1245.03 489.921C1239.33 473.054 1227.4 459.352 1211.47 451.314C1192.13 441.559 1170.23 439.79 1149.81 446.35C1129.39 452.923 1112.84 466.99 1103.29 486.044C1093.18 506.082 1089.35 527.504 1091.79 547.249C1090.53 544.937 1088.95 542.838 1087.9 540.452C1076.58 515.597 1075.69 487.907 1085.35 462.595C1100.9 421.886 1147.12 401.855 1188.32 417.634C1193.84 419.94 1199.82 417.075 1201.87 411.723C1203.91 406.35 1201.17 400.307 1195.74 398.209C1143.72 378.053 1085.3 403.572 1065.69 454.99C1054.02 485.481 1055.13 518.829 1068.75 548.767C1082.34 578.808 1106.84 601.937 1137.72 613.84C1140.81 615.039 1143.99 615.891 1147.13 616.886C1147.58 617.135 1147.95 617.419 1148.43 617.604C1148.84 617.769 1149.26 617.906 1149.71 618.024C1149.9 618.078 1150.1 617.945 1150.3 617.975C1151.44 618.304 1152.59 618.797 1153.73 619.103C1187.08 628.039 1222.02 625.546 1253.81 611.662C1290.8 595.543 1318.99 566.029 1333.27 528.521C1352.47 478.675 1350.3 424.969 1327.52 381.099Z" fill="#B2121E" fill-opacity="0.04"/>
</g>
<defs>
<clipPath id="clip0">
<rect width="448.336" height="442.556" fill="white" transform="matrix(0.994047 0.108956 -0.101506 0.994835 44.9219 111)"/>
</clipPath>
<clipPath id="clip1">
<rect width="679.633" height="670.871" fill="white" transform="matrix(0.965926 0.258819 -0.251575 0.967838 769.774 0)"/>
</clipPath>
</defs>
</svg>
