<svg width="1430" height="1532" viewBox="0 0 1430 1532" fill="none" xmlns="http://www.w3.org/2000/svg">
<path d="M1911.99 1022.4C1861.21 970.727 1835.09 900.152 1840.32 828.763C1845.44 758.843 1879.19 696.781 1935.33 654.017C1952.18 641.183 1959.82 620.907 1955.75 599.777C1951.81 579.377 1937.56 562.562 1920.27 557.928C1911.4 555.551 1897.62 555.148 1882.41 566.726C1801.41 628.409 1750.48 718.246 1740.42 815.84C1640.29 721.935 1520.24 653.779 1391.91 618.195L1390.44 617.804C1384.15 616.116 1281.95 595.316 1258.4 593.599L1258.45 593.114C1190.71 586.054 1119.27 586.598 1040.05 594.795C1026.41 596.204 1012.54 597.767 998.515 599.343C906.007 609.729 810.36 620.475 723.272 597.14C700.474 591.031 679.006 582.685 659.437 572.322C593.935 537.619 539.623 485.042 506.364 425.775C509.794 428.754 513.3 431.643 516.88 434.46C546.446 457.66 580.322 474.49 617.572 484.471C729.415 514.44 872.965 476.908 930.943 347.196C956.086 290.948 954.58 224.924 926.841 166.04C901.205 111.642 856.698 72.4551 804.739 58.5327C774.838 50.5206 743.473 50.9296 711.522 59.7413C645.485 77.9592 565.788 148.301 587.912 233.009C599.088 275.795 630.869 309.029 670.837 319.739C698.808 327.234 727.217 322.834 752.978 307.014C770.826 296.06 779.771 277.431 776.91 257.176C773.904 235.89 758.39 217.428 739.186 212.282C726.8 208.963 713.858 211.134 701.767 218.553C695.704 222.275 693.319 221.782 693.297 221.776C692.974 221.488 691.336 218.795 691.296 211.968C691.213 198.195 697.546 180.395 704.571 174.631C718.174 163.461 734.747 157.104 750.043 157.169C760.922 157.218 771.36 158.56 781.072 161.162C798.203 165.752 821.295 176.625 834.047 202.318C850.561 235.613 851.267 273.043 836.035 307.733C819.712 344.91 786.474 373.869 747.142 385.195C715.26 394.377 681.752 394.39 647.554 385.226C602.669 373.199 557.756 345.682 517.665 305.654C495.383 283.405 485.13 246.232 489.531 203.663C495.46 146.352 531.427 65.6523 614.591 11.0224C675.97 -29.2919 757.261 -41.3944 832.058 -21.3525C865.835 -12.3019 896.386 2.69272 922.87 23.2241C1012.17 92.4341 1047.91 212.059 1011.81 320.889C1007.38 334.247 1008.16 347.152 1014.07 358.205C1020.2 369.681 1031.71 378.418 1045.63 382.149C1069.84 388.636 1099.68 379.132 1109.86 348.419C1121.74 312.62 1127.97 278.855 1128.38 248.074C1129.53 161.977 1102.28 80.5322 1049.55 12.5443C999.272 -52.271 928.8 -99.4315 851.094 -120.253C777.271 -140.034 699.978 -135.491 627.576 -107.133C511.563 -61.6769 420.61 40.0509 384.261 165.01C348.433 288.171 369.425 415.671 441.864 514.838C486.965 576.598 543.092 625.26 607.138 658.668C545.412 641.717 495.117 613.628 453.433 572.876C365.321 486.701 321.284 386.15 322.558 273.982C324.107 138.252 393.65 -4.20418 513.36 -116.841C526.799 -129.483 532.134 -146.332 528.004 -163.068C523.423 -181.625 507.748 -197.465 488.984 -202.493C472.157 -207.001 455.548 -202.56 442.211 -190.006C307.825 -63.6117 226.315 111.985 224.148 279.695C222.391 415.895 273.174 538.778 371.006 635.045C431.549 694.629 503.062 734.869 589.637 758.067C652.994 775.043 723.094 782.455 803.954 780.738C882.225 779.068 961.208 771.104 1039.29 757.008C961.574 829.631 919.805 930.209 926.272 1032.96C936.396 1193.74 1044.95 1329.01 1196.39 1369.58C1230.71 1378.78 1266.51 1382.97 1302.82 1382.03C1332.83 1381.26 1348.93 1358.8 1351.57 1336.87C1354.26 1314.51 1343.31 1288.22 1317.16 1281.22C1312.38 1279.94 1307.26 1279.36 1301.91 1279.5C1275.67 1280.18 1249.45 1277.06 1223.98 1270.24C1105.24 1238.42 1024.61 1134.21 1027.9 1016.83C1028.12 1009.08 1028.66 1001.39 1029.51 993.782C1038.3 1058.77 1070.43 1116.98 1122.86 1160.16C1147.3 1180.28 1175.27 1194.65 1206.04 1202.9C1268.28 1219.57 1338.14 1208.83 1392.89 1174.17C1443.71 1141.99 1477.79 1092.21 1488.83 1033.98C1506.81 939.205 1439.59 861.685 1364.21 841.488C1310.95 827.217 1240.3 839.924 1201.76 918.381C1194.64 932.873 1194.2 948.609 1200.51 962.66C1207.23 977.601 1221.27 989.526 1237.17 993.787C1259.44 999.752 1279.78 990.174 1290.28 968.804C1304.12 940.64 1330.15 936.289 1348.21 941.149C1368.81 946.669 1383.99 963.95 1387.84 986.257C1396.23 1035 1364.19 1086.24 1316.43 1100.49C1288.9 1108.71 1260.39 1109.31 1233.96 1102.23C1183.33 1088.67 1145.49 1048.82 1132.77 995.662C1109.61 898.95 1169.78 791.83 1264.17 761.743C1307.86 747.822 1358.79 749.003 1419.89 765.373C1449.14 773.212 1480.94 784.665 1517.11 800.378C1647.59 857.068 1755.71 959.401 1821.59 1088.51C1828.12 1101.33 1838.18 1109.87 1850.65 1113.21C1862.95 1116.51 1876.9 1114.34 1889.1 1107.28C1906.59 1101.44 1920.69 1086.36 1925.22 1068.54C1929.46 1051.8 1924.76 1035.41 1911.99 1022.4Z" fill="#B2121E" fill-opacity="0.05"/>
<path d="M573.726 -232.901C570.31 -220.152 571.323 -207.051 576.59 -196.008C582.66 -183.272 593.647 -174.468 608.36 -170.526C639.814 -162.098 662.944 -182.608 669.541 -207.228C672.958 -219.981 671.944 -233.079 666.677 -244.121C660.607 -256.858 649.62 -265.661 634.907 -269.604C603.46 -278.03 580.324 -257.525 573.726 -232.901Z" fill="#B2121E" fill-opacity="0.05"/>
</svg>
