<svg width="174" height="162" viewBox="0 0 174 162" fill="none" xmlns="http://www.w3.org/2000/svg">
<path d="M152.433 59.9355C147.052 59.8882 141.973 57.5532 138.498 53.529C135.094 49.5878 133.607 44.5555 134.31 39.3604C134.521 37.8012 133.857 36.335 132.534 35.4393C131.255 34.5744 129.624 34.4398 128.472 35.1046C127.881 35.4458 127.136 36.1484 126.946 37.5553C126.403 41.564 126.735 45.544 127.866 49.2444C129.074 53.2005 126.617 58.4296 122.555 59.2076C115.955 60.4715 109.636 62.7679 103.886 66.0214L103.789 66.0776C103.371 66.319 96.9501 70.5679 95.5949 71.7308C95.5873 71.7373 95.5769 71.7353 95.5705 71.7276C95.5642 71.7199 95.553 71.7188 95.5453 71.725C91.6218 74.9096 87.9026 78.6869 84.1764 83.273C83.534 84.0636 82.8877 84.874 82.2339 85.6933C77.9206 91.0976 73.4614 96.6857 67.6616 100.034C66.1433 100.911 64.5774 101.6 63.0053 102.083C58.0928 103.593 52.8744 103.773 48.2491 102.68C48.0568 102.634 48.0807 102.353 48.2768 102.33C51.0483 101.996 53.7115 101.1 56.1923 99.6682C63.6406 95.3679 69.209 85.8569 65.4413 75.9989C63.8076 71.724 60.2607 68.3353 55.711 66.6995C51.5074 65.1888 47.1115 65.4682 43.6512 67.466C41.6599 68.6157 40.034 70.2845 38.8187 72.4255C36.3071 76.8509 35.8157 84.7314 41.4268 88.0185C44.261 89.6787 47.6759 89.7551 50.3377 88.2183C52.2004 87.1428 53.4615 85.4196 53.9836 83.2357C54.3457 81.7229 53.837 80.2746 52.6229 79.361C51.347 78.4009 49.5625 78.2461 48.2836 78.9845C47.4587 79.4607 46.8929 80.2545 46.6476 81.2792C46.5436 81.7136 46.1282 81.8395 45.8033 81.5331C45.7865 81.5172 45.7693 81.5006 45.7517 81.4833C45.024 80.7642 44.4217 79.4967 44.4879 78.825C44.6157 77.5238 45.1523 76.3195 45.9591 75.5195C46.5331 74.9507 47.1518 74.4729 47.7986 74.0995C48.9394 73.4408 50.7233 72.799 52.7426 73.4787C55.3587 74.3601 57.3617 76.289 58.3837 78.911C59.4791 81.721 59.2543 84.9878 57.7834 87.6485C56.5911 89.8053 54.8318 91.5659 52.5543 92.8808C49.5651 94.6066 45.7609 95.5202 41.5528 95.5236C39.2139 95.5253 36.7229 94.1114 34.7182 91.6444C32.0195 88.3228 29.67 82.1951 31.1687 74.9578C32.2751 69.6165 35.909 64.7113 40.8903 61.8353C43.1397 60.5366 45.5319 59.7195 48.0013 59.4069C56.3266 58.3519 64.4871 62.7574 68.3072 70.3696C68.7758 71.3041 69.4948 71.9408 70.3856 72.211C71.3105 72.4917 72.3736 72.3463 73.3009 71.8109C74.9133 70.88 75.9814 68.8135 74.903 66.6656C73.6464 64.1617 72.2001 62.0612 70.6049 60.4229C66.1435 55.8401 60.4343 52.9939 54.0938 52.1925C48.0489 51.4288 41.8705 52.6532 36.6956 55.641C31.7792 58.4794 27.9581 62.7777 25.6448 68.0699C21.939 76.5507 22.5048 86.6709 27.1589 95.1433C31.7459 103.494 39.5452 109.088 48.5584 110.492C49.6219 110.658 50.6814 110.778 51.7351 110.853C53.423 110.973 53.9065 112.913 52.2144 112.933C43.0603 113.034 35.4662 110.066 29.6417 104.108C22.594 96.8974 18.7644 85.7625 19.1359 73.559C19.1778 72.1891 18.5731 71.024 17.4771 70.3619C16.2618 69.6278 14.6066 69.6191 13.3569 70.3406C12.2363 70.9876 11.5973 72.0932 11.5561 73.4531C11.1364 87.1501 16.0781 100.654 24.7729 109.577C31.8343 116.822 40.9558 120.609 51.1504 120.527C57.4598 120.477 63.3294 118.834 69.0951 115.505C73.3144 113.069 77.3856 109.777 81.5424 105.44C81.6837 105.292 81.8246 105.144 81.9652 104.996C85.3946 101.376 94.4355 103.771 97.2882 107.861C98.4096 109.468 99.7225 110.947 101.215 112.263C110.191 120.176 122.997 121.579 133.082 115.756C135.368 114.436 137.468 112.776 139.326 110.82C140.862 109.203 140.528 107.177 139.514 105.887C138.482 104.572 136.526 103.766 134.784 104.771C134.466 104.955 134.167 105.193 133.893 105.482C132.551 106.896 131.01 108.109 129.313 109.089C121.406 113.654 111.697 112.416 105.705 106.078C105.534 105.896 105.777 105.629 105.988 105.762C109.58 108.032 113.793 109.047 118.221 108.618C120.561 108.391 122.785 107.677 124.834 106.494C128.98 104.101 132.084 99.8675 133.139 95.171C134.119 90.8117 133.293 86.4072 130.815 82.7688C126.782 76.8468 119.18 76.3057 114.16 79.2039C110.613 81.2517 107.569 85.6299 109.666 91.7748C110.053 92.9101 110.856 93.7599 111.926 94.1663C113.063 94.5985 114.427 94.487 115.486 93.8756C116.969 93.0196 117.534 91.4481 116.964 89.7739C116.211 87.5679 117.35 85.9725 118.554 85.279C119.925 84.487 121.631 84.5972 123.004 85.5667C126.005 87.6862 127.014 92.0604 125.253 95.3175C124.24 97.195 122.773 98.7242 121.014 99.7401C117.642 101.687 113.562 101.581 110.101 99.4579C103.805 95.5946 101.339 86.8078 104.717 80.2701C106.28 77.2441 109.017 74.631 113.086 72.2819C115.034 71.1572 117.306 70.0886 120.031 69.0143C129.862 65.1383 140.916 64.8344 151.157 68.1556C152.173 68.4856 153.15 68.406 153.981 67.9264C154.667 67.5305 155.212 66.8728 155.53 66.0756C155.654 65.7632 155.775 65.4475 155.885 65.1297C156.278 63.9977 156.163 62.6926 155.551 61.664C154.894 60.5616 153.787 59.9477 152.433 59.9355Z" fill="#B2121E" fill-opacity="0.05"/>
<path d="M16.2107 64.2925C16.7009 65.1416 17.4422 65.7765 18.2989 66.0798C19.2866 66.43 20.3261 66.3153 21.3059 65.7496C23.4007 64.5402 23.5383 62.2481 22.5916 60.6085C22.1013 59.7592 21.3601 59.1245 20.5035 58.8211C19.5157 58.471 18.4762 58.5857 17.4964 59.1514C15.4021 60.3605 15.2639 62.6527 16.2107 64.2925Z" fill="#B2121E" fill-opacity="0.05"/>
</svg>
